PathFileType	4	(X/Y/Z)	67_2_58_p0_0-163_filt_butterworth.trc
DataRate	CameraRate	NumFrames	NumMarkers	Units	OrigDataRate	OrigDataStartFrame	OrigNumFrames
59.0	59.0	5	27	m	59.0	101	163
Frame#	Time	RHip			RKnee			RAnkle			RBigToe			RSmallToe			RHeel			LHip			LKnee			LAnkle			LBigToe			LSmallToe			LHeel			Neck			Head			Nose			RShoulder			RElbow			RWrist			RThumb			RIndex			RPinky			LShoulder			LElbow			LWrist			LThumb			LIndex			LPinky			
		X1	Y1	Z1	X2	Y2	Z2	X3	Y3	Z3	X4	Y4	Z4	X5	Y5	Z5	X6	Y6	Z6	X7	Y7	Z7	X8	Y8	Z8	X9	Y9	Z9	X10	Y10	Z10	X11	Y11	Z11	X12	Y12	Z12	X13	Y13	Z13	X14	Y14	Z14	X15	Y15	Z15	X16	Y16	Z16	X17	Y17	Z17	X18	Y18	Z18	X19	Y19	Z19	X20	Y20	Z20	X21	Y21	Z21	X22	Y22	Z22	X23	Y23	Z23	X24	Y24	Z24	X25	Y25	Z25	X26	Y26	Z26	X27	Y27	Z27	
101	1.7118644067796611	0.3934930919649167	0.5645208318627263	-0.10864470732046491	0.3905790270898536	0.5304947079115176	0.29913813403313316	0.33710680763819445	0.8524389186267793	0.7488161525612381	0.3544127526959008	0.6201658160587395	0.790898046976882	0.3981331451701521	0.6686325731811121	0.7876025498135132	0.33012464064912844	0.9362260728215892	0.7985406467339259	0.2090996688917177	0.49676464373903284	-0.09459319760836854	0.2356249085905362	0.5855625499520638	0.32198091332734535	0.19499450141611402	0.8288417299748203	0.763065296265208	0.24574516508485725	0.5742301569973065	0.7943877579160974	0.1788867784709156	0.60132420225036	0.7702570578656315	0.1958473382690542	0.9365030125926145	0.8373311919496714	0.2858149613847222	0.3984410634450033	-0.6068583476352141	0.257667051357383	0.19552164365936348	-0.8153241462228291	0.3196152139371275	0.20441866462588232	-0.6810425447740006	0.43666328772924534	0.4647593682700027	-0.5633029958207694	0.4843540569422966	0.598630920419898	-0.3134904902994883	0.5084302019029926	0.6108326594736643	-0.05718119730451458	0.4598583729021723	0.5341951480320869	0.04598490896032221	0.47992493396925306	0.5611188909642466	0.061169474139983936	0.5065950110181193	0.6556528638068896	0.055344954390181396	0.1469865715670409	0.3567700076231408	-0.49831129151062403	0.10994028474102312	0.39322214336842726	-0.26905472787844326	0.1466705442592167	0.23670798366534568	-0.03188938344847472	0.20593106605883033	0.17285087462682427	0.06257430816951849	0.19416768947837312	0.1486074370122006	0.08910662153119207	0.1666147302644346	0.17189801785748232	0.10073394917331023
102	1.728813559322034	0.3934110419802618	0.5642408435091859	-0.10900686509104078	0.39199028128582736	0.5283687501978276	0.29758746265765007	0.33943108759889995	0.8522131809313719	0.7481729376483621	0.3535627452779586	0.621410510180024	0.7919300699315606	0.397707818660374	0.6681591452923035	0.7869992976364732	0.3310364706608907	0.9408468652698391	0.7986563573814875	0.2108184747391428	0.4870698421157501	-0.09407926734829652	0.23661579427035478	0.5906517878704556	0.32268709792424566	0.1958987112951297	0.8289573732919076	0.7589266163630942	0.24745967679834763	0.5746117145518294	0.7934687606539528	0.18069678843727818	0.5957743992688258	0.7688156966135496	0.1958864093438557	0.9369707610089473	0.8374774385780797	0.28469080755746295	0.39806917378780665	-0.6080701627146562	0.2558268574555887	0.1982164786429058	-0.817816342134913	0.3189369887209915	0.20406114912990697	-0.6821956054770684	0.4364708340499602	0.4650511699865442	-0.5637373899056721	0.4887225020641446	0.5919697913339216	-0.3144562172755952	0.5110530455753504	0.6109587938287274	-0.05904263107074733	0.46144935694187966	0.5334790251995717	0.04354691772712612	0.4828993460022328	0.5685289079486646	0.0573790659005804	0.509093848992765	0.6549219394697279	0.05176981076546215	0.14693309145605085	0.35671903396108545	-0.49865264548272614	0.11125168869782402	0.3953751259748407	-0.2678327889232265	0.15118255236606376	0.2375768626456553	-0.031002874696648836	0.20828844750703795	0.17221504296014228	0.06345253160794889	0.20027431454946557	0.1476531999390869	0.08994436650865578	0.17225451863040722	0.17541572979511247	0.10334491958069443
103	1.7457627118644068	0.39330177264573474	0.5639927459123443	-0.10993591974651934	0.39203059890790504	0.5354811147317027	0.29916232110161617	0.3416468105817322	0.8516533259073641	0.7472391001195804	0.3521876455249463	0.6258272252867879	0.7937742638045813	0.3983432225237371	0.6678534663586377	0.7857458344146901	0.331417378113333	0.9429064518765333	0.7991678870471323	0.2126427521050116	0.4797486400071065	-0.0941572320476289	0.23735015063017081	0.5946031595691135	0.3232398138761359	0.1973511768267651	0.8287550447546012	0.7566564380962115	0.2494123208801588	0.5742919986385443	0.791115268733713	0.18212661698926405	0.5913088178735617	0.7676274800742843	0.1959022948507691	0.9374776360006551	0.8376386149471171	0.285871534297688	0.3962891353608191	-0.6098471117025941	0.25573721823746687	0.19740147612356623	-0.8206492949313875	0.3193152023182337	0.20272029939491587	-0.6840517525522419	0.4380815051708088	0.4656203387952143	-0.565004669112028	0.49419606674727307	0.5808774138836095	-0.3165014645574775	0.5139762681675857	0.6108689796122883	-0.060203332038004403	0.46385883806043837	0.5350458254886933	0.04187744083438162	0.4859505028743428	0.5744424136199626	0.05558898393308456	0.5121657391467601	0.6534868611506034	0.04839774033870102	0.14691295721092024	0.3566066110046709	-0.49897246422631863	0.11275347670267405	0.3944271953867207	-0.2677566949733273	0.15549604826223085	0.23727187686934403	-0.030258980502904563	0.20994047284213635	0.17167119012533236	0.06446268628235319	0.20541549783302282	0.14766609247951157	0.09081700239508501	0.1759787535770124	0.18098151636059512	0.10484306926200421
104	1.7627118644067796	0.3933976181296683	0.5637676097002413	-0.11160985816677998	0.3910215284186905	0.5511140504906288	0.30250024528453434	0.34353053024274915	0.8494555606041134	0.7465796107519134	0.35073671366805226	0.6321149093964611	0.7960687389635437	0.3990344950533344	0.6679404374408252	0.7848686595744416	0.33113855407912346	0.941827186838976	0.7995614312012129	0.21497895823983143	0.47686947260938	-0.09537690751344713	0.23763788853433693	0.5962902409436684	0.3233266895968557	0.19871282769088006	0.8284634332356731	0.7561716698161601	0.25067616368784196	0.5742386636694489	0.7895700275514805	0.18276954710481713	0.5892952174072037	0.7670547594378515	0.19591885284757501	0.9381344396539782	0.8378083973192377	0.28872474700258527	0.3922335430077489	-0.6120221103546684	0.25732324871455814	0.1934305576489344	-0.8230452102619987	0.3203983545885206	0.1994576517306595	-0.6858017905069155	0.44167847237452096	0.4654516842418882	-0.5667456891039951	0.49917095499550734	0.5697286198951804	-0.3192304315200324	0.5163537028544484	0.6107348034220912	-0.06078563188184845	0.46738296456388234	0.5401533775347994	0.040995889043385754	0.4896920430139412	0.5794811814337487	0.05500581224058515	0.5153273760075994	0.6510304407019262	0.04616273214454435	0.1469162129872156	0.3564004029586348	-0.49964564146279306	0.11505974020509661	0.39077771492754904	-0.2686066058331543	0.16000499574975482	0.23594695457957524	-0.02901507246624785	0.21142471516028638	0.1724905676374794	0.06497638987357177	0.209112797361537	0.1479731784758666	0.09116958743943351	0.17840927703145937	0.18532549921515912	0.10487928097428914
105	1.7796610169491525	0.3940581898083544	0.5634293446701332	-0.11411921881816266	0.38933050335152586	0.5690312534915709	0.30556949982992504	0.3451785390123543	0.84399860356976	0.7470369788484357	0.35036271819486914	0.6373566296678994	0.7990711369774077	0.39913934845138554	0.6685540158751617	0.7863339864078858	0.3301263427724063	0.9372963137684643	0.8000428753574513	0.21809680199751108	0.4766912268923569	-0.09829860490716656	0.23763377605629765	0.5965732209978744	0.32325069525767036	0.199412705139561	0.8280815202970571	0.7568281062053848	0.2509065542122004	0.5765902390265283	0.7907372765001852	0.1827625878706104	0.589393757745007	0.7670015269237975	0.19597902545763865	0.9379446836055072	0.8376456475646952	0.29207624187086956	0.38687764401019487	-0.6148297185877415	0.2604077127296753	0.18819480258278493	-0.8250784016162171	0.3217780997189889	0.19507571765712856	-0.6876228706379232	0.4469608641509162	0.46248652603728635	-0.5680239133045689	0.5027355126717514	0.5624929052001472	-0.32213791026536875	0.5176749514025134	0.610783291107636	-0.06142709164348686	0.47193827049792814	0.5475276477404194	0.04078757259305727	0.49409219214623334	0.5848177060732357	0.05501205050588369	0.5179271518252401	0.6469324398882947	0.045186974790507456	0.14698417405206196	0.35603545948703463	-0.5013347882278576	0.11869094501793687	0.38617180112738025	-0.2702763812764419	0.16493994695883873	0.2364913784363002	-0.027071621605672884	0.21333563699595492	0.1770687635649556	0.06499312433065586	0.21131576284780282	0.1490705817713558	0.09105257182341503	0.18082959990573624	0.1870878596754845	0.10345950275423024
